<svg width="1024" height="1024" viewBox="0 0 1024 1024" fill="none" xmlns="http://www.w3.org/2000/svg">
<circle cx="512" cy="512" r="512" fill="white"/>
<path d="M311.794 407.752C370.239 412.86 412.86 370.24 407.752 311.794L502.873 406.915C444.427 401.807 401.807 444.427 406.915 502.873L311.794 407.752Z" fill="black"/>
<path d="M521.127 617.086C579.573 622.193 622.193 579.573 617.085 521.127L712.206 616.248C653.761 611.141 611.14 653.761 616.248 712.207L521.127 617.086Z" fill="black"/>
<path d="M616.667 721.333C616.667 663.528 569.806 616.667 512 616.667C454.194 616.667 407.333 663.528 407.333 721.333C407.333 779.139 454.194 826 512 826C569.806 826 616.667 779.139 616.667 721.333Z" fill="black"/>
<path d="M826 512C826 454.194 779.139 407.333 721.333 407.333C663.528 407.333 616.667 454.194 616.667 512C616.667 569.806 663.528 616.667 721.333 616.667C779.139 616.667 826 569.806 826 512Z" fill="black"/>
<path d="M616.667 302.667C616.667 244.861 569.806 198 512 198C454.194 198 407.333 244.861 407.333 302.667C407.333 360.473 454.194 407.333 512 407.333C569.806 407.333 616.667 360.473 616.667 302.667Z" fill="black"/>
<path d="M407.333 512C407.333 454.194 360.472 407.333 302.667 407.333C244.861 407.333 198 454.194 198 512C198 569.806 244.861 616.667 302.667 616.667C360.472 616.667 407.333 569.806 407.333 512Z" fill="black"/>
</svg>
